<svg width="103" height="35" viewBox="0 0 103 35" fill="none" xmlns="http://www.w3.org/2000/svg">
<path d="M44.1742 24.3233C43.4809 24.3233 42.9453 24.1206 42.5672 23.7151C42.1891 23.2927 42 22.7098 42 21.9664V8.58503C42 7.82473 42.1891 7.24183 42.5672 6.83633C42.961 6.43084 43.5046 6.22809 44.1978 6.22809H50.0113C51.9019 6.22809 53.3592 6.75186 54.3833 7.79938C55.4231 8.83002 55.943 10.2577 55.943 12.0824C55.943 13.9071 55.4231 15.3433 54.3833 16.3908C53.3592 17.4214 51.9019 17.9368 50.0113 17.9368H46.3483V21.9664C46.3483 22.7098 46.1671 23.2927 45.8048 23.7151C45.4424 24.1206 44.8989 24.3233 44.1742 24.3233ZM46.3483 14.3633H49.2551C50.0743 14.3633 50.7045 14.1775 51.1457 13.8058C51.5868 13.4172 51.8074 12.8427 51.8074 12.0824C51.8074 11.3052 51.5868 10.7308 51.1457 10.3591C50.7045 9.98737 50.0743 9.80151 49.2551 9.80151H46.3483V14.3633Z" fill="#4E97FD"/>
<path d="M62.9248 24.374C61.6329 24.374 60.5065 24.1121 59.5454 23.5883C58.5844 23.0646 57.836 22.3127 57.3004 21.3328C56.7647 20.3528 56.4969 19.1955 56.4969 17.8607C56.4969 16.847 56.6465 15.9431 56.9459 15.149C57.2452 14.338 57.6785 13.6537 58.2456 13.0962C58.8128 12.5217 59.4903 12.0909 60.278 11.8036C61.0658 11.4995 61.948 11.3475 62.9248 11.3475C64.2167 11.3475 65.3432 11.6093 66.3042 12.1331C67.2653 12.6569 68.0057 13.4087 68.5256 14.3887C69.0613 15.3517 69.3291 16.5091 69.3291 17.8607C69.3291 18.8576 69.1795 19.7615 68.8801 20.5725C68.5808 21.3835 68.1475 22.0762 67.5804 22.6506C67.0289 23.2082 66.3515 23.639 65.548 23.9431C64.7602 24.2304 63.8859 24.374 62.9248 24.374ZM62.9248 21.054C63.3502 21.054 63.7283 20.9442 64.0592 20.7245C64.39 20.488 64.6421 20.1416 64.8154 19.6855C65.0044 19.2124 65.099 18.6041 65.099 17.8607C65.099 16.7287 64.8942 15.9177 64.4845 15.4278C64.0749 14.9209 63.555 14.6675 62.9248 14.6675C62.4994 14.6675 62.1213 14.7773 61.7905 14.9969C61.4596 15.2166 61.1997 15.5629 61.0106 16.036C60.8215 16.4922 60.727 17.1004 60.727 17.8607C60.727 18.9758 60.9318 19.7868 61.3415 20.2937C61.7511 20.8006 62.2789 21.054 62.9248 21.054Z" fill="#4E97FD"/>
<path d="M75.8885 24.374C75.1953 24.374 74.4864 24.3149 73.7616 24.1966C73.0527 24.0952 72.4067 23.9009 71.8238 23.6137C71.4299 23.4447 71.1463 23.2166 70.973 22.9294C70.8155 22.6422 70.7367 22.3381 70.7367 22.017C70.7525 21.696 70.8391 21.4088 70.9967 21.1554C71.17 20.885 71.3905 20.6992 71.6584 20.5978C71.942 20.4795 72.2571 20.488 72.6037 20.6232C73.2654 20.8766 73.8562 21.0624 74.3761 21.1807C74.9117 21.2821 75.4238 21.3328 75.9122 21.3328C76.4951 21.3328 76.9126 21.2483 77.1647 21.0793C77.4168 20.8935 77.5428 20.6569 77.5428 20.3697C77.5428 20.1163 77.4561 19.922 77.2828 19.7868C77.1253 19.6517 76.8968 19.5587 76.5975 19.508L73.9743 19.0519C72.9975 18.866 72.2413 18.4859 71.7056 17.9114C71.17 17.3201 70.9021 16.5513 70.9021 15.6052C70.9021 14.7266 71.1306 13.9747 71.5875 13.3496C72.0601 12.7076 72.6982 12.2176 73.5017 11.8797C74.3209 11.5249 75.2583 11.3475 76.3139 11.3475C77.0229 11.3475 77.6688 11.4066 78.2518 11.5249C78.8347 11.6262 79.4019 11.8205 79.9533 12.1078C80.2999 12.2598 80.5441 12.4795 80.6859 12.7667C80.8277 13.0539 80.8828 13.358 80.8513 13.6791C80.8198 13.9832 80.7174 14.2704 80.5441 14.5407C80.3865 14.7942 80.166 14.9716 79.8824 15.0729C79.5988 15.1574 79.2679 15.1321 78.8898 14.9969C78.3699 14.7773 77.9051 14.6168 77.4955 14.5154C77.1017 14.414 76.7314 14.3633 76.3848 14.3633C75.7389 14.3633 75.282 14.4563 75.0141 14.6421C74.7463 14.828 74.6124 15.0645 74.6124 15.3517C74.6124 15.5714 74.6833 15.7572 74.8251 15.9093C74.9669 16.0444 75.1875 16.1374 75.4868 16.1881L78.11 16.6696C79.1183 16.8385 79.8903 17.2102 80.4259 17.7847C80.9773 18.3422 81.253 19.1026 81.253 20.0656C81.253 21.4341 80.7646 22.4986 79.7878 23.2589C78.8111 24.0023 77.5113 24.374 75.8885 24.374Z" fill="#4E97FD"/>
<path d="M87.3996 24.374C85.8872 24.374 84.7686 23.9431 84.0439 23.0815C83.3349 22.2029 82.9804 20.885 82.9804 19.1279V8.28091C82.9804 7.5375 83.1616 6.9715 83.5239 6.5829C83.8863 6.1943 84.3983 6 85.06 6C85.7375 6 86.2574 6.1943 86.6198 6.5829C86.9979 6.9715 87.1869 7.5375 87.1869 8.28091V18.9758C87.1869 19.601 87.2972 20.0572 87.5178 20.3444C87.7541 20.6316 88.0534 20.7752 88.4158 20.7752C88.5261 20.7752 88.6364 20.7668 88.7467 20.7499C88.8727 20.7161 89.0066 20.6907 89.1484 20.6738C89.4162 20.6738 89.6132 20.7837 89.7392 21.0033C89.881 21.223 89.9519 21.6707 89.9519 22.3465C89.9519 22.9379 89.8416 23.3856 89.621 23.6897C89.4005 23.9769 89.0618 24.1628 88.6049 24.2473C88.4788 24.2642 88.2976 24.2895 88.0613 24.3233C87.825 24.3571 87.6044 24.374 87.3996 24.374Z" fill="#4E97FD"/>
<path d="M94.2526 28.8851C93.7642 28.8851 93.3703 28.75 93.071 28.4796C92.7716 28.2093 92.5826 27.8545 92.5038 27.4152C92.4408 26.9759 92.5117 26.5113 92.7165 26.0213L94.2998 22.3465V24.1712L90.2587 14.262C90.0539 13.7551 89.983 13.282 90.0461 12.8427C90.1248 12.4034 90.3375 12.0571 90.6841 11.8036C91.0307 11.5333 91.5034 11.3982 92.1021 11.3982C92.6062 11.3982 93.008 11.5249 93.3073 11.7783C93.6224 12.0148 93.906 12.4879 94.1581 13.1975L96.5213 19.7868H95.7178L98.2228 13.1722C98.4749 12.4795 98.7584 12.0148 99.0735 11.7783C99.4044 11.5249 99.8455 11.3982 100.397 11.3982C100.87 11.3982 101.248 11.5333 101.531 11.8036C101.815 12.0571 101.988 12.4034 102.051 12.8427C102.114 13.282 102.043 13.7551 101.839 14.262L96.474 27.1871C96.1904 27.8629 95.8753 28.3107 95.5287 28.5303C95.1979 28.7668 94.7725 28.8851 94.2526 28.8851Z" fill="#4E97FD"/>
<path d="M0 19.8759H7.08333C10.9953 19.8759 14.1667 23.0472 14.1667 26.9592V34.0426H0V19.8759Z" fill="#4E97FD"/>
<path d="M5.30088e-06 17.0425C5.59482e-06 13.6803 0.997038 10.3935 2.86502 7.59785C4.73301 4.80221 7.38804 2.62328 10.4944 1.33659C13.6007 0.0499021 17.0189 -0.286752 20.3165 0.369197C23.6142 1.02515 26.6433 2.64424 29.0208 5.02173C31.3983 7.39922 33.0174 10.4283 33.6734 13.726C34.3293 17.0237 33.9926 20.4418 32.706 23.5482C31.4193 26.6545 29.2403 29.3095 26.4447 31.1775C23.6491 33.0455 20.3623 34.0425 17 34.0425L17 29.6792C17 28.1144 18.2942 26.8853 19.7941 26.4393C20.7306 26.1608 21.6253 25.7424 22.4465 25.1937C24.0586 24.1165 25.3151 22.5855 26.0571 20.7941C26.7991 19.0028 26.9932 17.0317 26.615 15.13C26.2367 13.2283 25.303 11.4816 23.932 10.1105C22.561 8.73951 20.8142 7.80583 18.9125 7.42756C17.0109 7.0493 15.0398 7.24344 13.2484 7.98543C11.4571 8.72742 9.92602 9.98394 8.84882 11.5961C8.30011 12.4173 7.88173 13.312 7.60326 14.2485C7.15727 15.7484 5.92813 17.0425 4.36332 17.0425L5.30088e-06 17.0425Z" fill="#4E97FD"/>
</svg>
